<mxfile host="app.diagrams.net" modified="2022-03-09T20:44:48.242Z" agent="5.0 (Windows NT 10.0; Win64; x64) AppleWebKit/537.36 (KHTML, like Gecko) Chrome/99.0.4844.51 Safari/537.36 Edg/99.0.1150.36" version="17.1.0" etag="bqexg2fhzsIaULK-7vUY" type="github">
  <diagram id="C6taGj-GYj6IGOR-aLMz" name="Page-1">
    <mxGraphModel dx="966" dy="714" grid="1" gridSize="10" guides="1" tooltips="1" connect="1" arrows="1" fold="1" page="1" pageScale="1" pageWidth="850" pageHeight="1100" math="0" shadow="0">
      <root>
        <mxCell id="0" />
        <mxCell id="1" parent="0" />
        <mxCell id="32" value="" style="edgeStyle=none;shape=flexArrow;html=1;fontSize=18;fontColor=#FFFFFF;" parent="1" source="7" edge="1">
          <mxGeometry relative="1" as="geometry">
            <mxPoint x="430" y="250" as="targetPoint" />
            <Array as="points">
              <mxPoint x="520" y="250" />
            </Array>
          </mxGeometry>
        </mxCell>
        <mxCell id="33" value="&lt;font style=&quot;font-size: 12px&quot;&gt;Step 5. Add Repeat Return Rate&lt;/font&gt;" style="edgeLabel;html=1;align=center;verticalAlign=middle;resizable=0;points=[];fontSize=18;fontColor=#FFFFFF;" parent="32" vertex="1" connectable="0">
          <mxGeometry x="-0.0111" y="1" relative="1" as="geometry">
            <mxPoint x="4" y="-21" as="offset" />
          </mxGeometry>
        </mxCell>
        <mxCell id="7" value="&lt;div style=&quot;text-align: left&quot;&gt;&lt;span style=&quot;font-size: 12.0pt ; line-height: 107% ; font-family: &amp;#34;calibri&amp;#34; , sans-serif&quot;&gt;Repeat Repair Report&lt;/span&gt;&lt;br&gt;&lt;/div&gt;" style="rounded=0;whiteSpace=wrap;html=1;" parent="1" vertex="1">
          <mxGeometry x="640" y="230" width="200" height="40" as="geometry" />
        </mxCell>
        <mxCell id="14" value="" style="edgeStyle=none;shape=flexArrow;html=1;exitX=0.5;exitY=1;exitDx=0;exitDy=0;" parent="1" source="8" edge="1">
          <mxGeometry relative="1" as="geometry">
            <mxPoint x="420" y="160" as="sourcePoint" />
            <mxPoint x="420" y="960" as="targetPoint" />
          </mxGeometry>
        </mxCell>
        <mxCell id="8" value="&lt;div style=&quot;text-align: left&quot;&gt;&lt;span style=&quot;font-size: 12.0pt ; line-height: 107% ; font-family: &amp;#34;calibri&amp;#34; , sans-serif&quot;&gt;Depot Monthly Report By Ship Date&lt;/span&gt;&lt;br&gt;&lt;/div&gt;" style="rounded=0;whiteSpace=wrap;html=1;" parent="1" vertex="1">
          <mxGeometry x="280" y="40" width="280" height="40" as="geometry" />
        </mxCell>
        <mxCell id="11" value="&lt;div style=&quot;text-align: left&quot;&gt;&lt;span style=&quot;font-size: 12.0pt ; line-height: 107% ; font-family: &amp;#34;calibri&amp;#34; , sans-serif&quot;&gt;Parts&lt;/span&gt;&lt;span style=&quot;font-family: &amp;#34;calibri&amp;#34; , sans-serif ; font-size: 12pt&quot;&gt;Monthly Report By Ship Date (Depot Parts)&lt;/span&gt;&lt;/div&gt;" style="rounded=0;whiteSpace=wrap;html=1;" parent="1" vertex="1">
          <mxGeometry x="520" y="640" width="320" height="40" as="geometry" />
        </mxCell>
        <mxCell id="12" value="&lt;div style=&quot;text-align: left&quot;&gt;&lt;span style=&quot;font-size: 12.0pt ; line-height: 107% ; font-family: &amp;#34;calibri&amp;#34; , sans-serif&quot;&gt;Parts&amp;nbsp;&lt;/span&gt;&lt;span style=&quot;font-family: &amp;#34;calibri&amp;#34; , sans-serif ; font-size: 12pt&quot;&gt;Monthly Report By Ship Date (Spare Parts)&amp;nbsp;&lt;/span&gt;&lt;/div&gt;" style="rounded=0;whiteSpace=wrap;html=1;" parent="1" vertex="1">
          <mxGeometry x="520" y="400" width="320" height="40" as="geometry" />
        </mxCell>
        <mxCell id="17" value="&lt;div style=&quot;text-align: left&quot;&gt;&lt;span style=&quot;font-family: &amp;#34;calibri&amp;#34; , sans-serif ; font-size: 16px&quot;&gt;US CM WUR Invoice&lt;/span&gt;&lt;br&gt;&lt;/div&gt;" style="rounded=0;whiteSpace=wrap;html=1;" parent="1" vertex="1">
          <mxGeometry x="320" y="960" width="200" height="40" as="geometry" />
        </mxCell>
        <mxCell id="20" value="&lt;font style=&quot;font-size: 12px&quot;&gt;Step 1 &amp;amp; 2 &amp;amp; 3&lt;/font&gt;" style="text;html=1;align=center;verticalAlign=middle;resizable=0;points=[];autosize=1;strokeColor=none;fillColor=none;" parent="1" vertex="1">
          <mxGeometry x="425" y="80" width="90" height="20" as="geometry" />
        </mxCell>
        <mxCell id="22" value="&lt;div style=&quot;text-align: left&quot;&gt;&lt;span style=&quot;font-size: 12.0pt ; line-height: 107% ; font-family: &amp;#34;calibri&amp;#34; , sans-serif&quot;&gt;Platform Master File&amp;nbsp;&lt;/span&gt;&lt;span style=&quot;font-family: &amp;#34;calibri&amp;#34; , sans-serif ; font-size: 12pt&quot;&gt;&lt;b&gt;&lt;font color=&quot;#ff0000&quot;&gt;From Planner&lt;/font&gt;&lt;/b&gt;&lt;/span&gt;&lt;/div&gt;" style="rounded=0;whiteSpace=wrap;html=1;dashed=1;" parent="1" vertex="1">
          <mxGeometry y="120" width="280" height="40" as="geometry" />
        </mxCell>
        <mxCell id="27" value="" style="edgeStyle=none;shape=flexArrow;html=1;exitX=0.5;exitY=1;exitDx=0;exitDy=0;" parent="1" source="22" edge="1">
          <mxGeometry relative="1" as="geometry">
            <mxPoint x="70" y="220" as="sourcePoint" />
            <mxPoint x="410" y="220" as="targetPoint" />
            <Array as="points">
              <mxPoint x="140" y="220" />
            </Array>
          </mxGeometry>
        </mxCell>
        <mxCell id="28" value="&lt;font color=&quot;#ffffff&quot; style=&quot;font-size: 12px&quot;&gt;Step 4. Update Platform&lt;/font&gt;" style="edgeLabel;html=1;align=center;verticalAlign=middle;resizable=0;points=[];fontSize=18;fontColor=#FF0000;" parent="27" vertex="1" connectable="0">
          <mxGeometry x="-0.2513" y="-1" relative="1" as="geometry">
            <mxPoint x="67" y="-21" as="offset" />
          </mxGeometry>
        </mxCell>
        <mxCell id="35" value="" style="edgeStyle=none;shape=flexArrow;html=1;fontSize=18;fontColor=#FFFFFF;width=9.166666666666668;endSize=4.891666666666667;" parent="1" edge="1">
          <mxGeometry relative="1" as="geometry">
            <mxPoint x="400" y="280" as="sourcePoint" />
            <mxPoint x="340" y="280" as="targetPoint" />
            <Array as="points">
              <mxPoint x="400" y="340" />
              <mxPoint x="340" y="340" />
            </Array>
          </mxGeometry>
        </mxCell>
        <mxCell id="38" value="Step 6.1. Organize current data" style="edgeLabel;html=1;align=center;verticalAlign=middle;resizable=0;points=[];fontSize=12;fontColor=#FFFFFF;" parent="35" vertex="1" connectable="0">
          <mxGeometry x="0.4944" y="-4" relative="1" as="geometry">
            <mxPoint x="-14" y="34" as="offset" />
          </mxGeometry>
        </mxCell>
        <mxCell id="42" value="" style="edgeStyle=none;shape=flexArrow;html=1;" parent="1" edge="1">
          <mxGeometry relative="1" as="geometry">
            <mxPoint x="230" y="429.5" as="sourcePoint" />
            <mxPoint x="410" y="429.5" as="targetPoint" />
            <Array as="points">
              <mxPoint x="370" y="429.5" />
              <mxPoint x="230" y="429.5" />
            </Array>
          </mxGeometry>
        </mxCell>
        <mxCell id="43" value="&lt;font color=&quot;#ffffff&quot; style=&quot;font-size: 12px&quot;&gt;Step 6.2. Add FRU&lt;br&gt;&lt;/font&gt;" style="edgeLabel;html=1;align=center;verticalAlign=middle;resizable=0;points=[];fontSize=18;fontColor=#FF0000;" parent="42" vertex="1" connectable="0">
          <mxGeometry x="-0.2513" y="-1" relative="1" as="geometry">
            <mxPoint x="-17" y="19" as="offset" />
          </mxGeometry>
        </mxCell>
        <mxCell id="51" value="" style="group" parent="1" vertex="1" connectable="0">
          <mxGeometry x="10" y="300" width="220" height="260" as="geometry" />
        </mxCell>
        <mxCell id="9" value="&lt;div style=&quot;text-align: left&quot;&gt;&lt;span style=&quot;font-size: 12.0pt ; line-height: 107% ; font-family: &amp;#34;calibri&amp;#34; , sans-serif&quot;&gt;Depot Monthly - Held Status&lt;/span&gt;&lt;br&gt;&lt;/div&gt;" style="rounded=0;whiteSpace=wrap;html=1;" parent="51" vertex="1">
          <mxGeometry x="10" y="210" width="200" height="40" as="geometry" />
        </mxCell>
        <mxCell id="2" value="&lt;div style=&quot;text-align: left&quot;&gt;&lt;span style=&quot;font-size: 12.0pt ; line-height: 107% ; font-family: &amp;#34;calibri&amp;#34; , sans-serif&quot;&gt;FRU&amp;nbsp;&lt;/span&gt;&lt;span style=&quot;font-family: &amp;#34;calibri&amp;#34; , sans-serif ; font-size: 12pt&quot;&gt;testing Report&amp;nbsp;&lt;/span&gt;&lt;/div&gt;&lt;div style=&quot;text-align: left&quot;&gt;&lt;span style=&quot;font-family: &amp;#34;calibri&amp;#34; , sans-serif ; font-size: 12pt&quot;&gt;For SME MB Repair&lt;/span&gt;&lt;/div&gt;" style="rounded=0;whiteSpace=wrap;html=1;" parent="51" vertex="1">
          <mxGeometry x="10" y="110" width="200" height="40" as="geometry" />
        </mxCell>
        <mxCell id="3" value="&lt;div style=&quot;text-align: left&quot;&gt;&lt;span style=&quot;font-size: 12.0pt ; line-height: 107% ; font-family: &amp;#34;calibri&amp;#34; , sans-serif&quot;&gt;Depot Scrap Parts report&lt;/span&gt;&lt;br&gt;&lt;/div&gt;" style="rounded=0;whiteSpace=wrap;html=1;" parent="51" vertex="1">
          <mxGeometry x="10" y="160" width="200" height="40" as="geometry" />
        </mxCell>
        <mxCell id="4" value="&lt;div style=&quot;text-align: left&quot;&gt;&lt;span style=&quot;font-size: 12.0pt ; line-height: 107% ; font-family: &amp;#34;calibri&amp;#34; , sans-serif&quot;&gt;FRU Testing Report (New)&lt;/span&gt;&lt;br&gt;&lt;/div&gt;" style="rounded=0;whiteSpace=wrap;html=1;" parent="51" vertex="1">
          <mxGeometry x="10" y="60" width="200" height="40" as="geometry" />
        </mxCell>
        <mxCell id="6" value="&lt;div style=&quot;text-align: left&quot;&gt;&lt;span style=&quot;font-size: 12.0pt ; line-height: 107% ; font-family: &amp;#34;calibri&amp;#34; , sans-serif&quot;&gt;FRU Report&lt;/span&gt;&lt;br&gt;&lt;/div&gt;" style="rounded=0;whiteSpace=wrap;html=1;" parent="51" vertex="1">
          <mxGeometry x="10" y="10" width="200" height="40" as="geometry" />
        </mxCell>
        <mxCell id="45" value="" style="endArrow=none;dashed=1;html=1;dashPattern=1 3;strokeWidth=2;" parent="51" edge="1">
          <mxGeometry width="50" height="50" relative="1" as="geometry">
            <mxPoint x="220" y="260" as="sourcePoint" />
            <mxPoint x="220" as="targetPoint" />
          </mxGeometry>
        </mxCell>
        <mxCell id="46" value="" style="endArrow=none;dashed=1;html=1;dashPattern=1 3;strokeWidth=2;" parent="51" edge="1">
          <mxGeometry width="50" height="50" relative="1" as="geometry">
            <mxPoint y="260" as="sourcePoint" />
            <mxPoint as="targetPoint" />
          </mxGeometry>
        </mxCell>
        <mxCell id="47" value="" style="endArrow=none;dashed=1;html=1;dashPattern=1 3;strokeWidth=2;" parent="51" edge="1">
          <mxGeometry width="50" height="50" relative="1" as="geometry">
            <mxPoint y="260" as="sourcePoint" />
            <mxPoint x="220" y="260" as="targetPoint" />
          </mxGeometry>
        </mxCell>
        <mxCell id="48" value="" style="endArrow=none;dashed=1;html=1;dashPattern=1 3;strokeWidth=2;" parent="51" edge="1">
          <mxGeometry width="50" height="50" relative="1" as="geometry">
            <mxPoint as="sourcePoint" />
            <mxPoint x="220" as="targetPoint" />
          </mxGeometry>
        </mxCell>
        <mxCell id="52" value="" style="edgeStyle=none;shape=flexArrow;html=1;fontSize=18;fontColor=#FFFFFF;exitX=0.5;exitY=1;exitDx=0;exitDy=0;" parent="1" source="12" edge="1">
          <mxGeometry relative="1" as="geometry">
            <mxPoint x="840" y="480" as="sourcePoint" />
            <mxPoint x="425" y="480" as="targetPoint" />
            <Array as="points">
              <mxPoint x="680" y="480" />
            </Array>
          </mxGeometry>
        </mxCell>
        <mxCell id="53" value="&lt;font style=&quot;font-size: 12px&quot;&gt;Step 7. Transship data&lt;/font&gt;" style="edgeLabel;html=1;align=center;verticalAlign=middle;resizable=0;points=[];fontSize=18;fontColor=#FFFFFF;" parent="52" vertex="1" connectable="0">
          <mxGeometry x="-0.0111" y="1" relative="1" as="geometry">
            <mxPoint x="-24" y="-21" as="offset" />
          </mxGeometry>
        </mxCell>
        <mxCell id="54" value="" style="edgeStyle=none;shape=flexArrow;html=1;fontSize=18;fontColor=#FFFFFF;exitX=0.5;exitY=1;exitDx=0;exitDy=0;" parent="1" edge="1">
          <mxGeometry relative="1" as="geometry">
            <mxPoint x="680" y="560" as="sourcePoint" />
            <mxPoint x="425" y="600" as="targetPoint" />
            <Array as="points">
              <mxPoint x="680" y="600" />
            </Array>
          </mxGeometry>
        </mxCell>
        <mxCell id="55" value="&lt;font style=&quot;font-size: 12px&quot;&gt;Step 8. Rescue data&lt;br&gt;&lt;/font&gt;" style="edgeLabel;html=1;align=center;verticalAlign=middle;resizable=0;points=[];fontSize=18;fontColor=#FFFFFF;" parent="54" vertex="1" connectable="0">
          <mxGeometry x="-0.0111" y="1" relative="1" as="geometry">
            <mxPoint x="-24" y="-21" as="offset" />
          </mxGeometry>
        </mxCell>
        <mxCell id="56" value="&lt;div style=&quot;text-align: left&quot;&gt;&lt;span style=&quot;font-size: 12.0pt ; line-height: 107% ; font-family: &amp;#34;calibri&amp;#34; , sans-serif&quot;&gt;Working hours for Rescue Labor&amp;nbsp;&lt;/span&gt;&lt;span style=&quot;font-family: &amp;#34;calibri&amp;#34; , sans-serif ; font-size: 12pt&quot;&gt;&lt;b&gt;&lt;font color=&quot;#ff0000&quot;&gt;From Robb&lt;/font&gt;&lt;/b&gt;&lt;/span&gt;&lt;/div&gt;" style="rounded=0;whiteSpace=wrap;html=1;dashed=1;" parent="1" vertex="1">
          <mxGeometry x="520" y="520" width="320" height="40" as="geometry" />
        </mxCell>
        <mxCell id="59" value="" style="edgeStyle=none;shape=flexArrow;html=1;" parent="1" edge="1">
          <mxGeometry relative="1" as="geometry">
            <mxPoint x="250" y="639.5" as="sourcePoint" />
            <mxPoint x="410" y="640" as="targetPoint" />
            <Array as="points">
              <mxPoint x="390" y="639.5" />
              <mxPoint x="250" y="639.5" />
            </Array>
          </mxGeometry>
        </mxCell>
        <mxCell id="60" value="&lt;font color=&quot;#ffffff&quot; style=&quot;font-size: 12px&quot;&gt;Step 9. Telephone service fee&lt;br&gt;&lt;/font&gt;" style="edgeLabel;html=1;align=center;verticalAlign=middle;resizable=0;points=[];fontSize=18;fontColor=#FF0000;" parent="59" vertex="1" connectable="0">
          <mxGeometry x="-0.2513" y="-1" relative="1" as="geometry">
            <mxPoint x="-35" y="-28" as="offset" />
          </mxGeometry>
        </mxCell>
        <mxCell id="61" value="&lt;div style=&quot;text-align: left&quot;&gt;&lt;span style=&quot;font-size: 12.0pt ; line-height: 107% ; font-family: &amp;#34;calibri&amp;#34; , sans-serif&quot;&gt;Email&amp;nbsp;&lt;/span&gt;&lt;span style=&quot;font-family: &amp;#34;calibri&amp;#34; , sans-serif ; font-size: 12pt&quot;&gt;&lt;b&gt;&lt;font color=&quot;#ff0000&quot;&gt;From Affiliated Com-Net Inc.&lt;/font&gt;&lt;/b&gt;&lt;/span&gt;&lt;/div&gt;" style="rounded=0;whiteSpace=wrap;html=1;dashed=1;" parent="1" vertex="1">
          <mxGeometry x="10" y="620" width="240" height="40" as="geometry" />
        </mxCell>
        <mxCell id="62" value="" style="edgeStyle=none;shape=flexArrow;html=1;fontSize=18;fontColor=#FFFFFF;exitX=0.5;exitY=1;exitDx=0;exitDy=0;" parent="1" edge="1">
          <mxGeometry relative="1" as="geometry">
            <mxPoint x="680" y="680" as="sourcePoint" />
            <mxPoint x="425" y="720" as="targetPoint" />
            <Array as="points">
              <mxPoint x="680" y="720" />
            </Array>
          </mxGeometry>
        </mxCell>
        <mxCell id="63" value="&lt;font style=&quot;font-size: 12px&quot;&gt;Step 10. Empty Box and Newton SPF&amp;nbsp;&lt;/font&gt;" style="edgeLabel;html=1;align=center;verticalAlign=middle;resizable=0;points=[];fontSize=18;fontColor=#FFFFFF;" parent="62" vertex="1" connectable="0">
          <mxGeometry x="-0.0111" y="1" relative="1" as="geometry">
            <mxPoint x="-24" y="-21" as="offset" />
          </mxGeometry>
        </mxCell>
        <mxCell id="64" value="" style="edgeStyle=none;shape=flexArrow;html=1;" parent="1" edge="1">
          <mxGeometry relative="1" as="geometry">
            <mxPoint x="150" y="870" as="sourcePoint" />
            <mxPoint x="410" y="910" as="targetPoint" />
            <Array as="points">
              <mxPoint x="150" y="910" />
            </Array>
          </mxGeometry>
        </mxCell>
        <mxCell id="65" value="&lt;font color=&quot;#ffffff&quot; style=&quot;font-size: 12px&quot;&gt;Step 11. Advance Exchange&lt;/font&gt;" style="edgeLabel;html=1;align=center;verticalAlign=middle;resizable=0;points=[];fontSize=18;fontColor=#FF0000;" parent="64" vertex="1" connectable="0">
          <mxGeometry x="-0.2513" y="-1" relative="1" as="geometry">
            <mxPoint x="67" y="-21" as="offset" />
          </mxGeometry>
        </mxCell>
        <mxCell id="82" value="" style="group" parent="1" vertex="1" connectable="0">
          <mxGeometry x="20" y="709.5" width="350" height="160.5" as="geometry" />
        </mxCell>
        <mxCell id="5" value="&lt;div style=&quot;text-align: left&quot;&gt;&lt;span style=&quot;font-size: 12.0pt ; line-height: 107% ; font-family: &amp;#34;calibri&amp;#34; , sans-serif&quot;&gt;DepotMonthly Report By Order Create Date – Advance (All)&lt;/span&gt;&lt;br&gt;&lt;/div&gt;" style="rounded=0;whiteSpace=wrap;html=1;" parent="82" vertex="1">
          <mxGeometry x="20" y="110.5" width="320" height="40" as="geometry" />
        </mxCell>
        <mxCell id="10" value="&lt;div style=&quot;text-align: left&quot;&gt;&lt;span style=&quot;font-size: 12.0pt ; line-height: 107% ; font-family: &amp;#34;calibri&amp;#34; , sans-serif&quot;&gt;DepotMonthly Report By Order Create Date – Advance (CX Case Closed)&lt;/span&gt;&lt;br&gt;&lt;/div&gt;" style="rounded=0;whiteSpace=wrap;html=1;" parent="82" vertex="1">
          <mxGeometry x="20" y="10.5" width="320" height="40" as="geometry" />
        </mxCell>
        <mxCell id="67" value="&lt;div style=&quot;text-align: left&quot;&gt;&lt;span style=&quot;color: rgb(255 , 255 , 255) ; font-family: &amp;#34;calibri&amp;#34; , sans-serif ; font-size: 16px&quot;&gt;Depot Monthly Report(Summary)&lt;/span&gt;&lt;br&gt;&lt;/div&gt;" style="rounded=0;whiteSpace=wrap;html=1;" parent="82" vertex="1">
          <mxGeometry x="20" y="60.5" width="320" height="40" as="geometry" />
        </mxCell>
        <mxCell id="69" value="" style="endArrow=none;dashed=1;html=1;dashPattern=1 3;strokeWidth=2;" parent="82" edge="1">
          <mxGeometry width="50" height="50" relative="1" as="geometry">
            <mxPoint x="350" y="160.5" as="sourcePoint" />
            <mxPoint x="350" y="0.5" as="targetPoint" />
          </mxGeometry>
        </mxCell>
        <mxCell id="70" value="" style="endArrow=none;dashed=1;html=1;dashPattern=1 3;strokeWidth=2;" parent="82" edge="1">
          <mxGeometry width="50" height="50" relative="1" as="geometry">
            <mxPoint x="350" y="0.5" as="sourcePoint" />
            <mxPoint y="0.5" as="targetPoint" />
          </mxGeometry>
        </mxCell>
        <mxCell id="71" value="" style="endArrow=none;dashed=1;html=1;dashPattern=1 3;strokeWidth=2;" parent="82" edge="1">
          <mxGeometry width="50" height="50" relative="1" as="geometry">
            <mxPoint x="350" y="160.5" as="sourcePoint" />
            <mxPoint y="160.5" as="targetPoint" />
          </mxGeometry>
        </mxCell>
        <mxCell id="73" value="" style="endArrow=none;dashed=1;html=1;dashPattern=1 3;strokeWidth=2;" parent="82" edge="1">
          <mxGeometry width="50" height="50" relative="1" as="geometry">
            <mxPoint y="160.5" as="sourcePoint" />
            <mxPoint y="0.5" as="targetPoint" />
          </mxGeometry>
        </mxCell>
        <mxCell id="75" value="" style="endArrow=none;dashed=1;html=1;dashPattern=1 3;strokeWidth=2;" parent="82" edge="1">
          <mxGeometry width="50" height="50" relative="1" as="geometry">
            <mxPoint y="160" as="sourcePoint" />
            <mxPoint as="targetPoint" />
          </mxGeometry>
        </mxCell>
        <mxCell id="78" value="" style="endArrow=none;dashed=1;html=1;dashPattern=1 3;strokeWidth=2;" parent="82" edge="1">
          <mxGeometry width="50" height="50" relative="1" as="geometry">
            <mxPoint y="160.5" as="sourcePoint" />
            <mxPoint y="0.5" as="targetPoint" />
          </mxGeometry>
        </mxCell>
        <mxCell id="80" value="&lt;div style=&quot;text-align: left&quot;&gt;&lt;span style=&quot;font-size: 12.0pt ; line-height: 107% ; font-family: &amp;#34;calibri&amp;#34; , sans-serif&quot;&gt;DepotMonthly Report By Order Create Date – Advance (All)&lt;/span&gt;&lt;br&gt;&lt;/div&gt;" style="rounded=0;whiteSpace=wrap;html=1;" parent="82" vertex="1">
          <mxGeometry x="20" y="110.5" width="320" height="40" as="geometry" />
        </mxCell>
        <mxCell id="81" value="&lt;div style=&quot;text-align: left&quot;&gt;&lt;span style=&quot;color: rgb(255 , 255 , 255) ; font-family: &amp;#34;calibri&amp;#34; , sans-serif ; font-size: 16px&quot;&gt;Depot Monthly Report(Summary)&lt;/span&gt;&lt;br&gt;&lt;/div&gt;" style="rounded=0;whiteSpace=wrap;html=1;" parent="82" vertex="1">
          <mxGeometry x="20" y="60.5" width="320" height="40" as="geometry" />
        </mxCell>
        <mxCell id="83" value="&lt;div style=&quot;text-align: left&quot;&gt;&lt;span style=&quot;font-size: 12.0pt ; line-height: 107% ; font-family: &amp;#34;calibri&amp;#34; , sans-serif&quot;&gt;Price File&amp;nbsp;&lt;/span&gt;&lt;span style=&quot;font-family: &amp;#34;calibri&amp;#34; , sans-serif ; font-size: 12pt&quot;&gt;&lt;b&gt;&lt;font color=&quot;#ff0000&quot;&gt;From Pricing&lt;/font&gt;&lt;/b&gt;&lt;/span&gt;&lt;/div&gt;" style="rounded=0;whiteSpace=wrap;html=1;dashed=1;" parent="1" vertex="1">
          <mxGeometry x="560" y="120" width="280" height="40" as="geometry" />
        </mxCell>
        <mxCell id="84" value="" style="edgeStyle=none;shape=flexArrow;html=1;fontSize=18;fontColor=#FFFFFF;" parent="1" edge="1">
          <mxGeometry relative="1" as="geometry">
            <mxPoint x="430" y="139.5" as="targetPoint" />
            <Array as="points">
              <mxPoint x="520" y="139.5" />
            </Array>
            <mxPoint x="560" y="140" as="sourcePoint" />
          </mxGeometry>
        </mxCell>
        <mxCell id="85" value="&lt;br&gt;&lt;span style=&quot;font-size: 12px&quot;&gt;&lt;br&gt;&lt;/span&gt;" style="edgeLabel;html=1;align=center;verticalAlign=middle;resizable=0;points=[];fontSize=18;fontColor=#FFFFFF;" parent="84" vertex="1" connectable="0">
          <mxGeometry x="-0.0111" y="1" relative="1" as="geometry">
            <mxPoint x="4" y="-21" as="offset" />
          </mxGeometry>
        </mxCell>
      </root>
    </mxGraphModel>
  </diagram>
</mxfile>
